<svg version="1.1" id="Layer_1" xmlns="http://www.w3.org/2000/svg" xmlns:xlink="http://www.w3.org/1999/xlink" x="0px" y="0px"
	 width="100%" viewBox="0 0 1200 300" enable-background="new 0 0 1200 300" xml:space="preserve">
<path fill="#FEFFFF" opacity="1.000000" stroke="none" 
	d="
M864.000000,301.000000 
	C576.000000,301.000000 288.500000,301.000000 1.000000,301.000000 
	C1.000000,201.000000 1.000000,101.000000 1.000000,1.000000 
	C401.000000,1.000000 801.000000,1.000000 1201.000000,1.000000 
	C1201.000000,101.000000 1201.000000,201.000000 1201.000000,301.000000 
	C1088.833374,301.000000 976.666687,301.000000 864.000000,301.000000 
M263.448486,59.261410 
	C258.543304,59.261410 253.638107,59.261410 248.165298,59.261410 
	C248.900864,61.720631 249.308044,63.301105 249.842682,64.837234 
	C261.536407,98.436249 273.222870,132.037827 284.959167,165.621994 
	C290.277435,180.840515 295.531616,196.085342 301.161194,211.189163 
	C303.305237,216.941544 307.475830,220.995117 314.171509,221.253738 
	C320.969696,221.516281 326.049377,218.635315 329.332336,212.661484 
	C330.132141,211.206100 330.905334,209.730408 331.590332,208.218521 
	C349.157776,169.444214 366.706390,130.661377 384.288818,91.893852 
	C384.973450,90.384361 385.959381,89.011536 387.133606,87.016579 
	C388.204956,89.143288 388.841156,90.309723 389.392578,91.514954 
	C404.266296,124.025337 419.129425,156.540588 433.999298,189.052734 
	C437.457397,196.613693 440.806122,204.228333 444.440887,211.703659 
	C447.451843,217.896027 452.397858,221.355896 459.534454,221.259109 
	C466.488586,221.164764 470.448334,217.029602 473.141510,211.243530 
	C474.260803,208.838806 475.179108,206.331589 476.057495,203.824966 
	C492.440613,157.073761 508.806763,110.316612 525.155212,63.553272 
	C525.565369,62.379959 525.734497,61.122360 526.164429,59.262028 
	C519.415344,59.262028 513.253296,59.644089 507.164551,59.140274 
	C502.355865,58.742378 500.573120,60.791847 499.133270,64.980240 
	C485.837799,103.654671 472.358398,142.265884 458.916351,180.889877 
	C458.301544,182.656387 457.533142,184.369431 456.305298,187.431625 
	C454.476654,183.429245 453.238159,180.786667 452.055328,178.119415 
	C435.809601,141.486160 419.501801,104.880127 403.391235,68.187515 
	C400.213135,60.949177 395.242920,57.077438 387.307495,57.165668 
	C379.520569,57.252247 374.859039,61.385689 371.816803,68.345428 
	C359.562500,96.379601 347.123474,124.333115 334.724731,152.304031 
	C329.712463,163.611450 324.628326,174.887024 319.078827,187.290207 
	C317.849335,184.418823 316.988190,182.693771 316.355804,180.888550 
	C303.166107,143.235275 290.061005,105.552231 276.795044,67.925888 
	C273.160828,57.618118 275.731567,59.478703 263.448486,59.261410 
M1183.533936,219.767593 
	C1182.993652,218.321152 1182.711792,216.701859 1181.875977,215.453186 
	C1149.098877,166.480713 1116.319580,117.509460 1083.421875,68.617920 
	C1073.099121,53.276459 1057.865845,53.198872 1047.427124,68.489502 
	C1013.825256,117.709579 980.370605,167.030167 946.875122,216.322830 
	C946.195251,217.323380 945.709106,218.455582 944.892578,219.971970 
	C953.595947,219.971970 961.596802,219.754883 969.577209,220.063980 
	C973.539917,220.217468 975.851501,218.891861 978.066406,215.589417 
	C1005.704651,174.380829 1033.496704,133.275391 1061.265625,92.154495 
	C1062.332520,90.574768 1063.564087,89.106430 1065.100098,87.084572 
	C1089.697754,124.216164 1113.847534,160.671768 1138.595215,198.029831 
	C1135.395508,198.029831 1133.748657,198.029831 1132.101685,198.029831 
	C1098.774048,198.029831 1065.446411,198.011902 1032.118896,198.076660 
	C1030.222900,198.080353 1027.492798,198.090012 1026.571411,199.237473 
	C1021.424683,205.647079 1016.715576,212.408051 1011.190735,219.959473 
	C1069.208252,219.959473 1125.960327,219.959473 1183.533936,219.767593 
M655.933411,129.610519 
	C670.835571,152.122910 685.737732,174.635284 701.224670,198.031097 
	C698.349121,198.031097 696.883850,198.031128 695.418518,198.031097 
	C664.921265,198.030457 634.411194,198.533203 603.933899,197.752563 
	C593.452820,197.484116 586.105286,199.730179 581.389954,209.394714 
	C579.657776,212.944824 576.794739,215.943192 574.104614,219.668030 
	C632.404602,219.668030 689.461731,219.668030 747.112732,219.668030 
	C746.067322,217.941589 745.368530,216.676514 744.567078,215.480225 
	C720.658447,179.791824 696.745972,144.105911 672.819153,108.429703 
	C663.545776,94.602585 654.469116,80.635597 644.876892,67.032700 
	C635.534607,53.784267 620.832581,53.882317 611.202454,66.826485 
	C610.506836,67.761406 609.846375,68.723183 609.190674,69.686859 
	C576.225281,118.137863 543.260132,166.589020 510.309570,215.050125 
	C509.364594,216.439957 508.577942,217.937469 507.368134,219.972427 
	C516.744934,219.972427 525.076172,219.811035 533.395752,220.052551 
	C536.682312,220.147949 538.452881,218.888840 540.218506,216.258636 
	C564.897339,179.495010 589.684937,142.804337 614.456726,106.103104 
	C618.614319,99.943321 622.822388,93.817619 627.544189,86.888039 
	C637.199951,101.407547 646.374207,115.203072 655.933411,129.610519 
M914.160034,72.298759 
	C899.335999,64.390381 883.420776,60.410904 866.722412,60.223850 
	C839.232422,59.915901 811.736755,60.089214 784.243591,60.134144 
	C782.871643,60.136383 780.939819,60.396290 780.219299,61.296837 
	C774.976135,67.849640 769.976929,74.597633 764.201477,82.204819 
	C767.440186,82.204819 769.390320,82.204239 771.340393,82.204903 
	C802.666138,82.215622 833.998535,81.834579 865.315430,82.366447 
	C888.647278,82.762703 908.649963,91.175133 920.566162,112.349983 
	C939.710388,146.368851 920.753601,194.648453 869.387695,197.652084 
	C844.144714,199.128159 818.748657,197.989273 793.421875,198.018784 
	C792.463440,198.019897 791.504883,197.863693 789.957336,197.729874 
	C789.957336,171.966644 789.957336,146.434357 789.957336,120.775192 
	C781.089417,120.775192 772.839844,120.775192 764.559082,120.775192 
	C764.559082,153.951965 764.559082,186.831741 764.559082,219.772873 
	C765.574280,219.860733 766.228455,219.966980 766.882629,219.966858 
	C800.207886,219.960480 833.534729,220.133316 866.857727,219.850281 
	C883.251099,219.711044 898.915710,215.766312 913.055054,207.281342 
	C941.096558,190.453705 955.007568,165.615936 953.025879,132.802551 
	C951.404114,105.948257 937.739136,86.235458 914.160034,72.298759 
M123.591156,142.131790 
	C124.300011,140.447906 124.648521,138.436798 125.806908,137.161102 
	C127.331154,135.482483 129.439743,133.431229 131.395584,133.323196 
	C133.069214,133.230728 135.013290,135.514084 136.576492,137.018143 
	C137.344208,137.756821 137.516937,139.112198 137.963470,140.186584 
	C148.610352,165.804428 159.254150,191.423553 169.916183,217.035080 
	C170.447311,218.310898 171.137527,219.520493 171.934158,221.124298 
	C172.518539,220.220261 172.847198,219.863953 173.006546,219.443481 
	C181.366074,197.386429 189.750061,175.338394 197.966614,153.228134 
	C198.488266,151.824387 198.251801,149.568832 197.434387,148.321259 
	C178.922440,120.067352 160.360825,91.845001 141.613098,63.747124 
	C135.912598,55.203587 127.446167,55.163010 121.788200,63.603127 
	C103.072586,91.521667 84.582863,119.591576 65.894287,147.528366 
	C63.985119,150.382294 64.047966,152.791748 65.223785,155.843735 
	C72.150841,173.823685 78.904190,191.870560 85.717819,209.894226 
	C87.108955,213.574081 88.507645,217.251083 90.344467,222.093689 
	C101.633606,194.876282 112.432861,168.839966 123.591156,142.131790 
M139.500000,220.966415 
	C147.528275,220.966415 155.556534,220.966415 164.127762,220.966415 
	C152.984543,194.655731 142.166153,169.111969 130.917877,142.553238 
	C119.674088,169.367844 108.969559,194.896378 98.037971,220.966415 
	C111.955772,220.966415 125.227890,220.966415 139.500000,220.966415 
M184.130173,220.970230 
	C204.167236,220.970230 224.204315,220.970230 245.522018,220.970230 
	C231.363083,199.571609 218.099258,179.525787 204.407364,158.832993 
	C201.737732,165.895065 199.378510,172.092575 197.051025,178.301987 
	C192.211319,191.213654 187.344574,204.115707 182.637711,217.075745 
	C182.239029,218.173523 179.355942,220.342300 184.130173,220.970230 
M79.895988,217.623734 
	C72.724091,198.566788 65.552193,179.509827 57.995331,159.429962 
	C44.236008,180.134064 31.056633,199.965515 17.383654,220.539703 
	C39.068241,220.539703 59.784370,220.539703 80.687706,220.539703 
	C80.519249,219.925613 80.309906,219.162445 79.895988,217.623734 
z"/>
<path fill="#30ADC6" opacity="1.000000" stroke="none" 
	d="
M263.933044,59.261459 
	C275.731567,59.478703 273.160828,57.618118 276.795044,67.925888 
	C290.061005,105.552231 303.166107,143.235275 316.355804,180.888550 
	C316.988190,182.693771 317.849335,184.418823 319.078827,187.290207 
	C324.628326,174.887024 329.712463,163.611450 334.724731,152.304031 
	C347.123474,124.333115 359.562500,96.379601 371.816803,68.345428 
	C374.859039,61.385689 379.520569,57.252247 387.307495,57.165668 
	C395.242920,57.077438 400.213135,60.949177 403.391235,68.187515 
	C419.501801,104.880127 435.809601,141.486160 452.055328,178.119415 
	C453.238159,180.786667 454.476654,183.429245 456.305298,187.431625 
	C457.533142,184.369431 458.301544,182.656387 458.916351,180.889877 
	C472.358398,142.265884 485.837799,103.654671 499.133270,64.980240 
	C500.573120,60.791847 502.355865,58.742378 507.164551,59.140274 
	C513.253296,59.644089 519.415344,59.262028 526.164429,59.262028 
	C525.734497,61.122360 525.565369,62.379959 525.155212,63.553272 
	C508.806763,110.316612 492.440613,157.073761 476.057495,203.824966 
	C475.179108,206.331589 474.260803,208.838806 473.141510,211.243530 
	C470.448334,217.029602 466.488586,221.164764 459.534454,221.259109 
	C452.397858,221.355896 447.451843,217.896027 444.440887,211.703659 
	C440.806122,204.228333 437.457397,196.613693 433.999298,189.052734 
	C419.129425,156.540588 404.266296,124.025337 389.392578,91.514954 
	C388.841156,90.309723 388.204956,89.143288 387.133606,87.016579 
	C385.959381,89.011536 384.973450,90.384361 384.288818,91.893852 
	C366.706390,130.661377 349.157776,169.444214 331.590332,208.218521 
	C330.905334,209.730408 330.132141,211.206100 329.332336,212.661484 
	C326.049377,218.635315 320.969696,221.516281 314.171509,221.253738 
	C307.475830,220.995117 303.305237,216.941544 301.161194,211.189163 
	C295.531616,196.085342 290.277435,180.840515 284.959167,165.621994 
	C273.222870,132.037827 261.536407,98.436249 249.842682,64.837234 
	C249.308044,63.301105 248.900864,61.720631 248.165298,59.261410 
	C253.638107,59.261410 258.543304,59.261410 263.933044,59.261459 
z"/>
<path fill="#30ADC6" opacity="1.000000" stroke="none" 
	d="
M1183.123169,219.863525 
	C1125.960327,219.959473 1069.208252,219.959473 1011.190735,219.959473 
	C1016.715576,212.408051 1021.424683,205.647079 1026.571411,199.237473 
	C1027.492798,198.090012 1030.222900,198.080353 1032.118896,198.076660 
	C1065.446411,198.011902 1098.774048,198.029831 1132.101685,198.029831 
	C1133.748657,198.029831 1135.395508,198.029831 1138.595215,198.029831 
	C1113.847534,160.671768 1089.697754,124.216164 1065.100098,87.084572 
	C1063.564087,89.106430 1062.332520,90.574768 1061.265625,92.154495 
	C1033.496704,133.275391 1005.704651,174.380829 978.066406,215.589417 
	C975.851501,218.891861 973.539917,220.217468 969.577209,220.063980 
	C961.596802,219.754883 953.595947,219.971970 944.892578,219.971970 
	C945.709106,218.455582 946.195251,217.323380 946.875122,216.322830 
	C980.370605,167.030167 1013.825256,117.709579 1047.427124,68.489502 
	C1057.865845,53.198872 1073.099121,53.276459 1083.421875,68.617920 
	C1116.319580,117.509460 1149.098877,166.480713 1181.875977,215.453186 
	C1182.711792,216.701859 1182.993652,218.321152 1183.123169,219.863525 
z"/>
<path fill="#30ADC6" opacity="1.000000" stroke="none" 
	d="
M655.740967,129.304565 
	C646.374207,115.203072 637.199951,101.407547 627.544189,86.888039 
	C622.822388,93.817619 618.614319,99.943321 614.456726,106.103104 
	C589.684937,142.804337 564.897339,179.495010 540.218506,216.258636 
	C538.452881,218.888840 536.682312,220.147949 533.395752,220.052551 
	C525.076172,219.811035 516.744934,219.972427 507.368134,219.972427 
	C508.577942,217.937469 509.364594,216.439957 510.309570,215.050125 
	C543.260132,166.589020 576.225281,118.137863 609.190674,69.686859 
	C609.846375,68.723183 610.506836,67.761406 611.202454,66.826485 
	C620.832581,53.882317 635.534607,53.784267 644.876892,67.032700 
	C654.469116,80.635597 663.545776,94.602585 672.819153,108.429703 
	C696.745972,144.105911 720.658447,179.791824 744.567078,215.480225 
	C745.368530,216.676514 746.067322,217.941589 747.112732,219.668030 
	C689.461731,219.668030 632.404602,219.668030 574.104614,219.668030 
	C576.794739,215.943192 579.657776,212.944824 581.389954,209.394714 
	C586.105286,199.730179 593.452820,197.484116 603.933899,197.752563 
	C634.411194,198.533203 664.921265,198.030457 695.418518,198.031097 
	C696.883850,198.031128 698.349121,198.031097 701.224670,198.031097 
	C685.737732,174.635284 670.835571,152.122910 655.740967,129.304565 
z"/>
<path fill="#30ADC6" opacity="1.000000" stroke="none" 
	d="
M914.466064,72.500809 
	C937.739136,86.235458 951.404114,105.948257 953.025879,132.802551 
	C955.007568,165.615936 941.096558,190.453705 913.055054,207.281342 
	C898.915710,215.766312 883.251099,219.711044 866.857727,219.850281 
	C833.534729,220.133316 800.207886,219.960480 766.882629,219.966858 
	C766.228455,219.966980 765.574280,219.860733 764.559082,219.772873 
	C764.559082,186.831741 764.559082,153.951965 764.559082,120.775192 
	C772.839844,120.775192 781.089417,120.775192 789.957336,120.775192 
	C789.957336,146.434357 789.957336,171.966644 789.957336,197.729874 
	C791.504883,197.863693 792.463440,198.019897 793.421875,198.018784 
	C818.748657,197.989273 844.144714,199.128159 869.387695,197.652084 
	C920.753601,194.648453 939.710388,146.368851 920.566162,112.349983 
	C908.649963,91.175133 888.647278,82.762703 865.315430,82.366447 
	C833.998535,81.834579 802.666138,82.215622 771.340393,82.204903 
	C769.390320,82.204239 767.440186,82.204819 764.201477,82.204819 
	C769.976929,74.597633 774.976135,67.849640 780.219299,61.296837 
	C780.939819,60.396290 782.871643,60.136383 784.243591,60.134144 
	C811.736755,60.089214 839.232422,59.915901 866.722412,60.223850 
	C883.420776,60.410904 899.335999,64.390381 914.466064,72.500809 
z"/>
<path fill="#30ADC6" opacity="1.000000" stroke="none" 
	d="
M123.411636,142.467712 
	C112.432861,168.839966 101.633606,194.876282 90.344467,222.093689 
	C88.507645,217.251083 87.108955,213.574081 85.717819,209.894226 
	C78.904190,191.870560 72.150841,173.823685 65.223785,155.843735 
	C64.047966,152.791748 63.985119,150.382294 65.894287,147.528366 
	C84.582863,119.591576 103.072586,91.521667 121.788200,63.603127 
	C127.446167,55.163010 135.912598,55.203587 141.613098,63.747124 
	C160.360825,91.845001 178.922440,120.067352 197.434387,148.321259 
	C198.251801,149.568832 198.488266,151.824387 197.966614,153.228134 
	C189.750061,175.338394 181.366074,197.386429 173.006546,219.443481 
	C172.847198,219.863953 172.518539,220.220261 171.934158,221.124298 
	C171.137527,219.520493 170.447311,218.310898 169.916183,217.035080 
	C159.254150,191.423553 148.610352,165.804428 137.963470,140.186584 
	C137.516937,139.112198 137.344208,137.756821 136.576492,137.018143 
	C135.013290,135.514084 133.069214,133.230728 131.395584,133.323196 
	C129.439743,133.431229 127.331154,135.482483 125.806908,137.161102 
	C124.648521,138.436798 124.300011,140.447906 123.411636,142.467712 
z"/>
<path fill="#30ADC6" opacity="1.000000" stroke="none" 
	d="
M139.000000,220.966415 
	C125.227890,220.966415 111.955772,220.966415 98.037971,220.966415 
	C108.969559,194.896378 119.674088,169.367844 130.917877,142.553238 
	C142.166153,169.111969 152.984543,194.655731 164.127762,220.966415 
	C155.556534,220.966415 147.528275,220.966415 139.000000,220.966415 
z"/>
<path fill="#30ADC6" opacity="1.000000" stroke="none" 
	d="
M183.707001,220.968658 
	C179.355942,220.342300 182.239029,218.173523 182.637711,217.075745 
	C187.344574,204.115707 192.211319,191.213654 197.051025,178.301987 
	C199.378510,172.092575 201.737732,165.895065 204.407364,158.832993 
	C218.099258,179.525787 231.363083,199.571609 245.522018,220.970230 
	C224.204315,220.970230 204.167236,220.970230 183.707001,220.968658 
z"/>
<path fill="#30ADC6" opacity="1.000000" stroke="none" 
	d="
M79.998276,218.011505 
	C80.309906,219.162445 80.519249,219.925613 80.687706,220.539703 
	C59.784370,220.539703 39.068241,220.539703 17.383654,220.539703 
	C31.056633,199.965515 44.236008,180.134064 57.995331,159.429962 
	C65.552193,179.509827 72.724091,198.566788 79.998276,218.011505 
z"/>
</svg>